<svg xmlns="http://www.w3.org/2000/svg" xmlns:xlink="http://www.w3.org/1999/xlink" width="200" height="200" viewBox="0 0 200 200" fill="none"><path     fill="#FEA32E"  d="M0 164L0 36C0 16.1177 16.1177 0 36 0L164 0C183.882 0 200 16.1177 200 36L200 164C200 183.882 183.882 200 164 200L36 200C16.1177 200 0 183.882 0 164Z"></path><path d="M63.1765 100.162L63.1765 166.069C63.1765 166.248 63.1722 166.427 63.1638 166.605C63.1553 166.784 63.1426 166.962 63.1255 167.14C63.1086 167.319 63.0873 167.496 63.0618 167.673C63.0364 167.85 63.0068 168.026 62.973 168.201C62.9391 168.377 62.9012 168.551 62.8591 168.725C62.817 168.898 62.7709 169.071 62.7207 169.242C62.6703 169.413 62.6159 169.583 62.5574 169.752C62.4992 169.92 62.4369 170.087 62.3705 170.252C62.3042 170.417 62.2339 170.581 62.1598 170.742C62.0857 170.904 62.0079 171.064 61.9263 171.222C61.8445 171.38 61.7591 171.535 61.6701 171.689C61.581 171.842 61.4882 171.993 61.3919 172.142C61.2958 172.291 61.1961 172.437 61.0927 172.581C60.9896 172.724 60.8831 172.865 60.7732 173.004C60.6632 173.142 60.5501 173.277 60.4337 173.41C60.3172 173.542 60.1977 173.672 60.0753 173.798C59.9527 173.925 59.8272 174.048 59.6989 174.168C59.5704 174.288 59.4392 174.405 59.3054 174.519C59.1714 174.632 59.0348 174.742 58.8957 174.849C58.7565 174.955 58.6149 175.058 58.4708 175.158C58.3266 175.257 58.1803 175.353 58.0318 175.445C57.8831 175.537 57.7324 175.625 57.5796 175.709C57.4266 175.793 57.2719 175.874 57.1153 175.95C56.9586 176.027 56.8003 176.099 56.6402 176.168C56.48 176.236 56.3185 176.301 56.1554 176.361C55.9922 176.421 55.8277 176.478 55.6619 176.529C55.4961 176.581 55.329 176.629 55.1608 176.672C54.9928 176.716 54.8238 176.755 54.6538 176.79C54.4839 176.825 54.3132 176.855 54.1417 176.881C53.9704 176.908 53.7985 176.93 53.6261 176.947C53.4537 176.965 53.2809 176.978 53.1077 176.987C52.9347 176.996 52.7616 177 52.5882 177C52.4149 177 52.2417 176.996 52.0687 176.987C51.8956 176.978 51.7228 176.965 51.5504 176.947C51.3779 176.93 51.2061 176.908 51.0347 176.881C50.8632 176.855 50.6926 176.825 50.5227 176.79C50.3527 176.755 50.1837 176.716 50.0156 176.672C49.8474 176.629 49.6804 176.581 49.5146 176.529C49.3488 176.478 49.1843 176.421 49.021 176.361C48.858 176.301 48.6964 176.236 48.5363 176.168C48.3762 176.099 48.2178 176.027 48.0612 175.95C47.9046 175.874 47.7498 175.793 47.5969 175.709C47.4441 175.625 47.2934 175.537 47.1447 175.445C46.9962 175.353 46.8498 175.257 46.7057 175.158C46.5616 175.058 46.42 174.955 46.2808 174.849C46.1416 174.742 46.0051 174.632 45.871 174.519C45.7372 174.405 45.6061 174.288 45.4776 174.168C45.3493 174.048 45.2238 173.925 45.1012 173.798C44.9788 173.672 44.8593 173.542 44.7427 173.41C44.6264 173.277 44.5132 173.142 44.4033 173.004C44.2934 172.865 44.1869 172.724 44.0837 172.581C43.9804 172.437 43.8807 172.291 43.7846 172.142C43.6882 171.993 43.5955 171.842 43.5063 171.689C43.4174 171.535 43.332 171.38 43.2502 171.222C43.1686 171.064 43.0907 170.904 43.0166 170.742C42.9426 170.581 42.8723 170.417 42.806 170.252C42.7396 170.087 42.6773 169.92 42.619 169.752C42.5606 169.583 42.5062 169.413 42.4558 169.242C42.4056 169.071 42.3595 168.898 42.3174 168.725C42.2753 168.551 42.2373 168.377 42.2035 168.201C42.1697 168.026 42.1401 167.85 42.1147 167.673C42.0892 167.496 42.0679 167.319 42.051 167.14C42.0341 166.962 42.0213 166.784 42.0127 166.605C42.0042 166.427 42 166.248 42 166.069L42 69.6716C42 57.1666 57.6987 52.2693 64.4189 62.6757L102 120.843L139.581 62.6467C146.301 52.2548 162 57.1518 162 69.6426L162 166.069C162 166.248 161.996 166.427 161.987 166.605C161.979 166.784 161.966 166.962 161.949 167.14C161.932 167.319 161.911 167.496 161.885 167.673C161.86 167.85 161.83 168.026 161.796 168.201C161.763 168.377 161.725 168.551 161.683 168.725C161.64 168.898 161.594 169.071 161.544 169.242C161.494 169.413 161.439 169.583 161.381 169.752C161.323 169.92 161.26 170.087 161.194 170.252C161.128 170.417 161.058 170.581 160.983 170.742C160.909 170.904 160.831 171.064 160.75 171.222C160.668 171.38 160.583 171.535 160.494 171.689C160.405 171.842 160.312 171.993 160.215 172.142C160.119 172.291 160.02 172.437 159.916 172.581C159.813 172.724 159.707 172.865 159.597 173.004C159.487 173.142 159.374 173.277 159.257 173.41C159.141 173.542 159.021 173.672 158.899 173.798C158.776 173.925 158.651 174.048 158.522 174.168C158.394 174.288 158.263 174.405 158.129 174.519C157.995 174.632 157.858 174.742 157.719 174.849C157.58 174.955 157.439 175.058 157.294 175.158C157.15 175.257 157.004 175.353 156.855 175.445C156.706 175.537 156.556 175.625 156.403 175.709C156.25 175.793 156.095 175.874 155.939 175.95C155.782 176.027 155.624 176.099 155.464 176.168C155.303 176.236 155.142 176.301 154.979 176.361C154.816 176.421 154.651 176.478 154.485 176.529C154.32 176.581 154.153 176.629 153.984 176.672C153.816 176.716 153.647 176.755 153.477 176.79C153.307 176.825 153.137 176.855 152.965 176.881C152.794 176.908 152.622 176.93 152.45 176.947C152.277 176.965 152.104 176.978 151.931 176.987C151.758 176.996 151.585 177 151.412 177C151.238 177 151.065 176.996 150.892 176.987C150.719 176.978 150.546 176.965 150.374 176.947C150.202 176.93 150.029 176.908 149.858 176.881C149.687 176.855 149.516 176.825 149.346 176.79C149.176 176.755 149.007 176.716 148.839 176.672C148.671 176.629 148.504 176.581 148.338 176.529C148.172 176.478 148.008 176.421 147.845 176.361C147.682 176.301 147.52 176.236 147.36 176.168C147.2 176.099 147.041 176.027 146.885 175.95C146.728 175.874 146.573 175.793 146.42 175.709C146.268 175.625 146.117 175.537 145.968 175.445C145.82 175.353 145.673 175.257 145.529 175.158C145.385 175.058 145.244 174.955 145.104 174.849C144.965 174.742 144.829 174.632 144.695 174.519C144.561 174.405 144.43 174.288 144.301 174.168C144.173 174.048 144.047 173.925 143.925 173.798C143.802 173.672 143.683 173.542 143.566 173.41C143.45 173.277 143.337 173.142 143.227 173.004C143.117 172.865 143.01 172.724 142.907 172.581C142.804 172.437 142.704 172.291 142.608 172.142C142.512 171.993 142.419 171.842 142.33 171.689C142.241 171.535 142.156 171.38 142.074 171.222C141.992 171.064 141.914 170.904 141.84 170.742C141.766 170.581 141.696 170.417 141.629 170.252C141.563 170.087 141.501 169.92 141.443 169.752C141.384 169.583 141.33 169.413 141.28 169.242C141.229 169.071 141.183 168.898 141.141 168.725C141.099 168.551 141.061 168.377 141.027 168.201C140.993 168.026 140.964 167.85 140.938 167.673C140.913 167.496 140.891 167.319 140.875 167.14C140.858 166.962 140.845 166.784 140.836 166.605C140.828 166.427 140.824 166.248 140.824 166.069L140.824 100.162L112.179 144.513C112.04 144.728 111.894 144.938 111.743 145.144C111.591 145.35 111.433 145.551 111.27 145.747C111.106 145.943 110.937 146.133 110.762 146.318C110.587 146.503 110.407 146.683 110.222 146.856C110.036 147.03 109.845 147.198 109.65 147.359C109.454 147.521 109.254 147.676 109.049 147.825C108.845 147.974 108.636 148.117 108.422 148.252C108.209 148.388 107.992 148.517 107.771 148.638C107.55 148.76 107.326 148.875 107.098 148.983C106.871 149.091 106.64 149.191 106.406 149.284C106.172 149.377 105.936 149.463 105.697 149.541C105.459 149.619 105.218 149.69 104.975 149.752C104.732 149.815 104.487 149.87 104.241 149.918C103.995 149.965 103.747 150.005 103.499 150.036C103.25 150.068 103.001 150.092 102.751 150.108C102.501 150.123 102.251 150.131 102 150.131C101.749 150.131 101.499 150.123 101.249 150.108C100.999 150.092 100.75 150.068 100.501 150.036C100.253 150.005 100.005 149.965 99.7591 149.918C99.5129 149.87 99.268 149.815 99.0251 149.752C98.7822 149.69 98.5414 149.619 98.3027 149.541C98.0639 149.463 97.8276 149.377 97.5937 149.284C97.3602 149.191 97.1294 149.091 96.9016 148.983C96.6742 148.875 96.4497 148.76 96.2289 148.638C96.008 148.517 95.7907 148.388 95.5776 148.252C95.3644 148.117 95.1554 147.974 94.9505 147.825C94.7457 147.676 94.5458 147.521 94.3503 147.359C94.1548 147.198 93.964 147.03 93.7784 146.856C93.5928 146.683 93.4128 146.503 93.2377 146.318C93.0629 146.133 92.8936 145.943 92.73 145.747C92.5665 145.551 92.4088 145.35 92.2572 145.144C92.1058 144.938 91.9605 144.728 91.8212 144.513L63.1765 100.162Z"   fill="#FFFFFF" ></path><path d="M94.3635 57.6365L66 50L94.3635 42.3635L102 14L109.637 42.3635L138 50L109.637 57.6365L102 86L94.3635 57.6365Z"   fill="#FFFFFF" ></path></svg>